<svg xmlns="http://www.w3.org/2000/svg" width="612px" height="612px" viewBox="0 0 612 612" enable-background="new 0 0 612 612">
<linearGradient id="SVGID_1_" gradientUnits="userSpaceOnUse" x1="171.8589" y1="675.5518" x2="440.1422" y2="-61.5509" gradientTransform="matrix(1 0 0 -1 0 613)">
	<stop  offset="0" style="stop-color:#FFFFED"/>
	<stop  offset="1" style="stop-color:#F0FFED"/>
</linearGradient>
<rect fill="url(#SVGID_1_)" width="612" height="612"/>
<g fill="#BBD200">
	<path d="M292.134,240.014c-0.478,0-0.951,0-0.951-0.482c-0.488-0.488-0.488-0.488-0.488-0.961v-3.342
		c0-0.483,0-0.953,0.488-0.953c0.478,0,0.478-0.478,0.951-0.478h27.249c0.487,0,0.961,0,1.439,0.478
		c0.486,0,0.486,0.479,0.486,0.953v3.342c0,0.488,0,0.961-0.486,0.961c-0.479,0.482-0.479,0.482-0.957,0.482H292.134
		L292.134,240.014z"/>
	<path d="M355.242,230.939l-24.385-11.002c-0.951-0.478-1.912-0.955-1.912-1.435
		c-0.479-0.483-0.479-0.956-0.479-1.444c0-0.478,0-0.947,0.479-1.434c0.481-0.483,0.961-0.483,1.438-0.483c0.487,0,0.487,0,0.951,0
		c0.487,0,0.961,0.483,1.439,0.483l26.297,11.958c0,0,0,0,0.486,0c1.912,0.952,2.873,1.903,2.873,2.874s-0.95,1.902-2.873,2.869
		h-0.486l-26.297,12.431l0,0c-0.957,0.488-1.908,0.956-2.392,0.956c-0.482,0-1.438,0-1.438-0.479
		c-0.479-0.487-0.479-0.951-0.479-1.438c0-0.483,0-0.952,0.479-1.43c0.486-0.483,0.961-0.962,1.912-1.439L355.242,230.939z"/>
	<path d="M251.494,317.002c-0.478,0-0.951,0-0.951-0.488c-0.488-0.486-0.488-0.486-0.488-0.95v-3.348
		c0-0.482,0-0.956,0.488-0.956c0.478,0,0.478-0.479,0.951-0.479h27.249c0.488,0,0.961,0,1.439,0.479
		c0.488,0.487,0.488,0.487,0.488,0.956v3.348c0,0.479,0,0.95-0.488,0.95c-0.478,0.488-0.478,0.488-0.951,0.488H251.494
		L251.494,317.002z"/>
	<path d="M314.602,307.898L290.218,296.9c-0.952-0.482-1.913-0.946-1.913-1.43c-0.478-0.478-0.478-0.955-0.478-1.435
		c0-0.478,0-0.956,0.487-1.435c0.479-0.482,0.952-0.482,1.43-0.482c0.488,0,0.488,0,0.957,0c0.483,0,0.956,0.482,1.434,0.482
		l26.297,11.953c0,0,0,0,0.487,0c1.903,0.957,2.869,1.903,2.869,2.874c0,0.951-0.957,1.903-2.869,2.869h-0.487l-26.297,12.437l0,0
		c-0.951,0.491-1.903,0.956-2.391,0.956c-0.478,0-1.43,0-1.43-0.479c-0.487-0.493-0.487-0.971-0.487-1.444
		c0-0.479,0-0.955,0.487-1.438c0.479-0.479,0.952-0.951,1.913-1.43L314.602,307.898z"/>
</g>
<g fill="#FF6860">
	<path d="M104.227,249.577l-0.478,7.655c0,0.951-0.483,1.908-0.483,2.391c-0.479,0.479-0.961,0.479-1.908,0.479
		c-0.493,0-1.444,0-1.444-0.483c-0.483-0.483-0.483-0.957-0.483-1.903v-0.482l0.483-7.655c-0.946,0-1.908-0.483-2.391-0.957
		c-0.483-0.488-1.908-0.956-2.391-1.435c-0.483,0.483-0.483,0.946-0.946,0.946c-0.483,0-0.961,0.488-1.444,0.488
		c-0.946,0-1.429-0.488-1.908-0.956c-0.483-0.482-0.951-1.436-0.951-2.387v-4.78c0-0.947,0-1.435,0.488-1.908
		c0.478-0.483,0.951-0.952,1.903-0.952c1.439,0,2.391,0.952,2.878,2.391c0,0.479,0.478,0.957,0.478,0.957
		c0.483,0.957,1.439,1.43,3.352,2.391c1.903,0.482,3.342,0.947,5.259,0.947s3.825-0.479,4.781-1.43
		c0.952-0.951,1.913-2.396,1.913-3.83c0-1.436-0.488-2.396-1.444-3.348c-0.952-0.957-2.878-1.902-6.221-2.869l-5.732-1.908
		c-2.391-0.961-3.825-1.912-5.264-3.83c-1.43-1.912-1.908-3.834-1.908-5.732c0-2.878,0.951-5.269,2.869-6.689
		c1.913-1.908,4.781-2.883,8.133-2.883v-2.386c0-0.957,0.478-1.43,0.478-1.908c0.479-0.483,0.952-0.483,1.903-0.483
		c0.487,0,1.439,0,1.912,0.483c0.488,0.492,0.488,0.951,0.488,1.908v0.487v2.391c0.952,0,1.43,0.483,2.391,0.483
		c0.952,0.483,1.43,0.483,2.391,0.952c0.478-0.483,0.478-0.483,0.952-0.952c0.478,0,0.478-0.483,0.951-0.483
		c0.488,0,1.439,0,1.439,0.483c0.478,0.483,0.478,0.952,0.478,1.908v4.294c0,0.955,0,1.443-0.478,1.902
		c-0.488,0.492-0.952,0.492-1.913,0.492c-0.952,0-1.908-0.492-2.391-1.908c0-0.486,0-0.486-0.478-0.955
		c-0.488-0.957-1.439-1.439-2.391-1.914c-1.439-0.478-2.391-0.952-4.293-0.952c-2.391,0-3.83,0.488-5.269,1.435
		c-1.439,0.961-1.913,2.396-1.913,3.825c0,1.439,0.483,2.391,1.439,3.347c0.952,0.956,1.913,1.438,3.825,2.392l6.211,1.908
		c3.352,0.957,5.742,2.391,7.172,4.308c1.444,1.897,2.391,3.815,2.391,6.211c0,2.873-0.947,5.264-3.347,7.172
		C110.93,248.132,107.578,249.577,104.227,249.577L104.227,249.577z"/>
	<path d="M153.478,223.275L153.478,223.275c0-0.952,0-1.43,0.488-1.898c0.483-0.492,0.952-0.492,1.913-0.492
		c0.951,0,1.43,0.492,1.903,0.961c0.483,0.473,0.488,1.43,0.488,3.338v6.225c0,0.947,0,1.439-0.488,1.898
		c-0.483,0.492-0.952,0.492-1.903,0.492c-0.488,0-0.961,0-1.439-0.492c-0.478-0.469-0.951-0.951-1.439-1.898
		c-0.952-1.913-2.391-2.879-3.82-3.83c-1.434-0.961-3.352-1.439-5.264-1.439c-3.352,0-6.225,0.957-8.616,2.879
		c-1.908,1.907-3.347,4.78-3.347,8.118c0,3.347,0.956,6.226,2.874,8.134c1.908,1.907,4.781,2.863,8.128,2.863
		c1.435,0,2.874,0,4.298-0.479c1.435-0.479,2.391-0.956,3.825-1.912c0.483-0.475,0.956-0.475,1.908-1.436
		c1.439-1.43,2.391-1.908,3.352-1.908c0.478,0,1.43,0,1.903,0.494c0.488,0.481,0.488,0.95,0.488,1.897
		c0,1.908-1.439,3.342-4.781,5.269c-3.342,1.908-6.694,2.879-10.514,2.879c-4.781,0-8.611-1.444-11.953-4.787
		c-3.352-2.868-4.781-6.684-4.781-11.469c0-4.776,1.43-8.603,4.781-11.467c3.342-2.873,7.172-4.781,11.953-4.781
		c1.903,0,3.342,0,4.781,0.483C149.648,221.376,151.57,222.328,153.478,223.275L153.478,223.275z"/>
	<path d="M201.291,236.667c0,4.786-1.439,8.616-4.781,11.47c-3.342,2.879-7.172,4.309-12.431,4.309
		c-5.264,0-9.084-1.439-12.436-4.309c-3.347-2.863-4.781-6.684-4.781-11.47c0-4.776,1.435-8.603,4.781-11.47
		c3.342-2.869,7.172-4.299,12.436-4.299c5.259,0,9.08,1.439,12.431,4.299C199.852,228.061,201.291,231.891,201.291,236.667
		L201.291,236.667z M184.078,248.132c3.342,0,6.211-0.946,8.124-3.342c2.391-1.897,3.347-4.776,3.347-8.128
		c0-3.348-0.947-6.21-3.347-8.123c-2.391-2.391-4.781-3.348-8.124-3.348c-3.352,0-6.22,0.957-8.133,3.348
		c-2.391,2.396-3.342,4.775-3.342,8.123c0,3.352,0.952,6.227,3.342,8.128C177.867,247.186,180.727,248.132,184.078,248.132
		L184.078,248.132z"/>
	<path d="M234.281,251.967c-0.483,0-0.961,0-0.961-0.488c0,0-0.478-0.482-0.478-1.435v-2.869
		c-1.435,1.908-2.874,2.869-4.781,3.825c-1.913,0.956-4.294,1.439-6.216,1.439c-4.298,0-7.655-1.439-10.509-4.309
		c-2.874-2.863-4.303-6.684-4.303-10.997c0-4.78,1.439-8.606,4.303-11.465c2.869-2.878,6.689-4.294,10.992-4.294
		c2.391,0,4.298,0.482,6.22,1.43c1.903,0.961,3.342,1.913,4.781,3.83v-12.91h-1.912c-1.903,0-3.342,0-3.82-0.483
		c-0.488-0.478-0.966-0.951-0.966-1.903s0-1.435,0.488-1.913c0.483-0.478,0.951-0.478,1.903-0.478h6.694
		c0.478,0,0.951,0,1.429,0.478c0.488,0,0.488,0.488,0.488,0.957v37.293h1.439c0.951,0,1.903,0,2.391,0.483
		c0.483,0.483,0.483,0.957,0.483,1.907c0,0.957,0,1.439-0.483,1.914c-0.488,0.473-0.961,0.478-1.908,0.478L234.281,251.967
		L234.281,251.967z M212.766,237.15c0,2.877,0.952,5.742,2.869,7.654c1.913,1.908,4.303,2.875,7.66,2.875
		c2.869,0,5.733-0.951,7.655-2.875c1.908-1.897,2.869-4.775,2.869-7.654c0-2.869-0.947-5.729-2.869-7.65
		c-1.913-1.902-4.303-2.878-7.655-2.878c-2.878-0.005-5.747,0.961-7.66,2.878C213.727,230.939,212.766,233.798,212.766,237.15
		L212.766,237.15z"/>
	<path d="M253.884,238.105c0,3.348,1.439,5.737,3.342,7.177c1.913,1.903,4.781,2.386,8.133,2.386
		c2.391,0,5.259-0.482,8.602-1.908c2.878-1.439,4.781-1.902,5.742-1.902c0.478,0,1.43,0,1.908,0.482s0.483,0.947,0.483,1.43
		c0,0.483,0,1.439-0.483,1.908c-0.483,0.479-1.439,0.957-2.391,1.439c-2.391,0.951-4.298,1.908-6.689,2.391
		c-2.391,0.488-4.781,0.952-7.172,0.952c-4.781,0-9.084-1.435-11.953-4.298c-2.874-2.874-4.303-6.689-4.303-11.471
		c0-4.78,1.439-8.605,4.781-11.953c3.347-2.868,7.172-4.297,12.441-4.297c4.781,0,8.602,1.438,11.465,4.297
		c2.878,2.869,4.781,6.217,4.781,10.046c0,1.438-0.478,1.907-0.951,2.391c-0.488,0.483-1.913,0.483-4.303,0.483h-0.478
		L253.884,238.105L253.884,238.105z M254.367,233.798h21.516c-0.488-2.391-1.439-4.78-3.352-6.22
		c-1.908-1.439-4.298-2.396-6.689-2.396c-2.874,0-5.264,0.957-7.172,2.396C256.275,229.018,254.836,230.939,254.367,233.798
		L254.367,233.798z"/>
	<path d="M374.367,247.186v-33.957h-0.479c-1.434,0-2.391,0-2.873-0.483s-0.95-0.961-0.95-1.908
		c0-0.947,0-1.435,0.481-1.903c0.479-0.488,0.951-0.488,1.908-0.488h4.781c0.481,0,0.95,0,1.434,0.488
		c0.479,0,0.479,0.483,0.479,0.956v14.827c1.438-1.438,3.352-2.391,4.78-3.342c1.439-0.492,3.353-0.951,4.781-0.951
		c3.353,0,5.742,0.951,7.659,2.864c1.903,1.908,2.869,4.786,2.869,8.611v14.826h2.386c0.961,0,1.912,0,2.391,0.487
		c0.482,0.483,0.482,0.952,0.482,1.903s0,1.439-0.482,1.908c-0.479,0.468-0.95,0.481-1.907,0.481h-8.605
		c-0.957,0-1.908,0-1.908-0.481c-0.481-0.483-0.481-0.957-0.481-1.908c0-0.956,0-1.439,0.481-1.903
		c0.483-0.487,1.436-0.487,2.392-0.487h1.435v-13.852c0-2.396-0.483-4.303-1.908-5.742c-1.434-1.436-2.873-1.908-5.264-1.908
		s-4.299,0.957-6.227,2.392c-1.906,1.438-2.391,3.342-2.391,5.733v13.864h1.444c1.438,0,2.391,0,2.878,0.483
		c0.479,0.482,0.479,0.951,0.479,1.908s0,1.435-0.479,1.902c-0.487,0.487-0.951,0.487-1.912,0.487h-9.084
		c-0.952,0-1.43,0-1.908-0.487c-0.481-0.482-0.481-0.951-0.481-1.902c0-0.957,0.481-1.439,0.961-1.908
		C371.977,247.186,372.938,247.186,374.367,247.186L374.367,247.186L374.367,247.186z"/>
	<path d="M416.447,238.105c0,3.348,1.438,5.737,3.352,7.177c1.912,1.903,4.781,2.386,8.123,2.386
		c2.391,0,5.27-0.482,8.611-1.908c2.868-1.439,4.781-1.902,5.736-1.902c0.482,0,1.436,0,1.902,0.482
		c0.488,0.482,0.488,0.952,0.488,1.436c0,0.482,0,1.438-0.488,1.908c-0.478,0.478-1.429,0.955-2.391,1.438
		c-2.392,0.952-4.298,1.907-6.688,2.391c-2.391,0.488-4.781,0.952-7.172,0.952c-4.781,0-9.075-1.436-11.953-4.298
		c-2.874-2.874-4.294-6.688-4.294-11.47s1.43-8.606,4.781-11.953c3.348-2.869,7.172-4.299,12.432-4.299
		c4.781,0,8.611,1.439,11.476,4.299c2.869,2.869,4.78,6.216,4.78,10.045c0,1.439-0.481,1.908-0.961,2.391
		c-0.478,0.483-1.901,0.483-4.293,0.483h-0.492L416.447,238.105L416.447,238.105z M416.447,233.798h21.516
		c-0.479-2.391-1.43-4.78-3.343-6.22c-1.912-1.439-4.303-2.396-6.693-2.396c-2.869,0-5.26,0.957-7.172,2.396
		C418.359,229.018,417.398,230.939,416.447,233.798L416.447,233.798z"/>
	<path d="M475.734,247.669c-1.912,1.444-3.83,2.878-5.737,3.825c-1.913,0.961-4.304,1.439-6.694,1.439
		c-3.347,0-5.736-0.957-8.128-2.879c-1.907-1.908-2.868-4.298-2.868-7.162c0-3.343,1.438-6.226,3.829-8.134
		c2.869-1.897,6.216-2.868,11.472-2.868c1.435,0,2.391,0,3.824,0c1.438,0,2.392,0.478,3.829,0.961l0,0
		c0-2.396-0.486-4.304-1.912-5.742c-1.435-1.436-2.868-1.913-5.731-1.913c-1.908,0-3.83,0.487-5.738,1.438
		c-1.907,0.961-3.342,1.439-4.298,1.439c-0.483,0-1.435-0.479-1.435-0.956c-0.482-0.488-0.482-0.957-0.482-1.908
		c0-1.438,1.434-2.392,3.824-3.342c2.391-0.961,5.265-1.438,9.075-1.438c3.829,0,6.688,0.961,8.61,2.873
		c1.907,1.907,2.868,4.786,2.868,8.611v14.827h1.444c1.435,0,2.391,0,2.873,0.483c0.482,0.482,0.952,0.951,0.952,1.907
		s0,1.438-0.479,1.908c-0.487,0.483-0.956,0.483-1.912,0.483h-5.26c-0.482,0-0.956,0-1.439-0.483
		c-0.481-0.478-0.481-0.952-0.95-1.435L475.734,247.669z M475.734,237.15c-1.439-0.483-2.392-0.483-3.348-0.947
		c-0.956,0-2.391-0.487-3.347-0.487c-3.352,0-6.216,0.487-8.133,1.907c-1.903,0.947-2.869,2.874-2.869,4.777
		c0,1.438,0.487,2.883,1.907,3.83c1.435,0.955,2.874,1.435,4.781,1.435c2.873,0,5.265-0.483,7.654-2.386
		c2.392-1.436,3.83-2.879,3.83-4.781L475.734,237.15L475.734,237.15z"/>
	<path d="M518.766,251.967c-0.481,0-0.956,0-0.956-0.488c0-0.482-0.482-0.482-0.482-1.435v-2.869
		c-1.435,1.908-2.873,2.869-4.781,3.825c-1.907,0.956-4.298,1.439-6.215,1.439c-4.299,0-7.655-1.439-10.521-4.309
		c-2.872-2.863-4.298-6.684-4.298-10.997c0-4.78,1.436-8.606,4.298-11.465c2.874-2.878,6.689-4.294,10.997-4.294
		c2.392,0,4.305,0.482,6.222,1.43c1.906,0.961,3.342,1.913,4.781,3.83v-12.91h-1.913c-1.912,0-3.348,0-3.829-0.483
		c-0.483-0.478-0.952-0.947-0.952-1.903s0-1.435,0.479-1.913c0.482-0.478,0.956-0.478,1.912-0.478h7.65c0.481,0,0.956,0,1.438,0.478
		c0.482,0,0.482,0.488,0.482,0.957v37.293h1.435c0.956,0,1.907,0,2.392,0.483c0.483,0.483,0.482,0.957,0.482,1.907
		c0,0.957,0,1.439-0.482,1.914c-0.483,0.478-0.951,0.478-1.907,0.478L518.766,251.967L518.766,251.967z M497.25,237.15
		c0,2.877,0.951,5.742,2.869,7.654c1.912,1.908,4.303,2.875,7.654,2.875c2.873,0,5.736-0.951,7.658-2.875
		c1.908-1.897,2.869-4.775,2.869-7.654c0-2.869-0.951-5.729-2.869-7.65c-1.912-1.902-4.303-2.878-7.658-2.878
		c-2.873,0-5.732,0.961-7.654,2.878C498.206,230.939,497.25,233.798,497.25,237.15L497.25,237.15z"/>
	<path d="M63.586,326.564l-0.478,7.648c0,0.952-0.483,1.908-0.483,2.396c-0.483,0.482-0.961,0.482-1.908,0.482
		c-0.483,0-1.444,0-1.444-0.482c0-0.487-0.483-0.956-0.483-1.902v-0.498l0.483-7.649c-0.946,0-1.908-0.491-2.391-0.95
		c-0.946-0.488-1.908-0.957-2.391-1.444c-0.483,0.487-0.483,0.956-0.946,0.956c-0.493,0-0.961,0.487-1.444,0.487
		c-0.946,0-1.429-0.487-1.908-0.956c-0.483-0.487-0.951-1.436-0.951-2.396v-4.775c0-0.956,0-1.443,0.488-1.907
		c0.478-0.479,0.951-0.956,1.903-0.956c1.439,0,2.391,0.956,2.878,2.391c0,0.492,0.478,0.956,0.478,0.956
		c0.483,0.951,1.439,1.436,3.352,2.392c1.903,0.481,3.342,0.95,5.259,0.95s3.825-0.486,4.781-1.435
		c1.435-0.956,1.913-2.391,1.913-3.834c0-1.436-0.488-2.392-1.439-3.343c-0.952-0.951-2.869-1.902-6.221-2.868l-5.737-1.913
		c-2.391-0.956-3.83-1.902-5.269-3.82c-1.439-1.913-1.903-3.834-1.903-5.737c0-2.873,0.951-5.269,2.869-6.688
		c1.913-1.908,4.781-2.878,8.133-2.878v-2.391c0-0.957,0.483-1.439,0.483-1.903c0.478-0.483,0.957-0.483,1.908-0.483
		c0.483,0,1.439,0,1.913,0.483c0.474,0.483,0.478,0.95,0.478,1.903v0.482v2.391c0.952,0,1.439,0.479,2.391,0.479
		c0.952,0.493,1.439,0.493,2.391,0.956c0.488-0.478,0.488-0.478,0.952-0.956c0.488,0,0.488-0.479,0.961-0.479
		c0.473,0,1.43,0,1.43,0.479c0.488,0.493,0.488,0.956,0.488,1.913v4.298c0,0.947,0,1.43-0.488,1.902
		c-0.483,0.488-0.952,0.488-1.903,0.488c-0.957,0-1.908-0.488-2.391-1.908c0-0.482,0-0.482-0.488-0.961
		c-0.488-0.951-1.43-1.43-2.391-1.897c-1.43-0.487-2.391-0.956-4.293-0.956c-2.391,0-3.83,0.479-5.269,1.434
		c-1.43,0.957-1.903,2.392-1.903,3.826c0,1.438,0.483,2.391,1.434,3.346c0.957,0.957,1.908,1.436,3.83,2.392l6.21,1.913
		c3.352,0.947,5.743,2.386,7.172,4.294c1.435,1.912,2.391,3.825,2.391,6.216c0,2.878-0.946,5.273-3.337,7.182
		C70.289,325.612,66.938,326.564,63.586,326.564L63.586,326.564z"/>
	<path d="M112.837,300.264L112.837,300.264c0-0.957,0-1.436,0.488-1.904c0.478-0.486,0.947-0.486,1.903-0.486
		c0.957,0,1.439,0.486,1.913,0.956c0.478,0.478,0.478,1.435,0.478,3.347v6.216c0,0.951,0,1.439-0.478,1.903
		c-0.483,0.487-0.961,0.487-1.913,0.487c-0.478,0-0.951,0-1.439-0.492c-0.478-0.474-0.952-0.952-1.43-1.903
		c-0.961-1.912-2.391-2.869-3.83-3.83c-1.435-0.951-3.342-1.43-5.264-1.43c-3.342,0-6.216,0.952-8.606,2.869
		c-1.908,1.903-3.347,4.781-3.347,8.128s0.956,6.221,2.874,8.119c1.908,1.907,4.781,2.883,8.128,2.883c1.435,0,2.874,0,4.298-0.483
		c1.435-0.491,2.391-0.956,3.825-1.906c0.492-0.492,0.956-0.492,1.908-1.439c1.439-1.435,2.391-1.907,3.352-1.907
		c0.478,0,1.43,0,1.903,0.487c0.488,0.483,0.488,0.947,0.488,1.903c0,1.906-1.439,3.347-4.781,5.269
		c-3.352,1.908-6.694,2.874-10.514,2.874c-4.781,0-8.611-1.438-11.953-4.781c-3.352-2.879-4.781-6.688-4.781-11.471
		s1.43-8.603,4.781-11.465c3.342-2.869,7.172-4.786,11.953-4.786c1.903,0,3.342,0,4.781,0.488
		C109.008,298.828,110.93,299.307,112.837,300.264L112.837,300.264z"/>
	<path d="M160.65,313.65c0,4.78-1.439,8.609-4.781,11.475c-3.342,2.864-7.172,4.289-12.431,4.289
		c-5.264,0-9.084-1.436-12.436-4.289c-3.347-2.883-4.781-6.693-4.781-11.475c0-4.782,1.435-8.603,4.781-11.467
		c3.342-2.877,7.172-4.303,12.436-4.303c5.259,0,9.08,1.439,12.431,4.303C159.211,305.518,160.65,308.869,160.65,313.65
		L160.65,313.65z M143.438,325.125c3.342,0,6.211-0.956,8.124-3.347c2.391-1.903,3.347-4.776,3.347-8.128
		c0-3.344-0.956-6.211-3.347-8.119c-2.391-2.391-4.781-3.348-8.124-3.348c-3.352,0-6.22,0.957-8.133,3.348
		c-2.391,2.381-3.342,4.771-3.342,8.119c0,3.352,0.952,6.225,3.342,8.128C137.227,324.169,140.086,325.125,143.438,325.125
		L143.438,325.125z"/>
	<path d="M194.119,328.955c-0.478,0-0.951,0-0.951-0.493c0,0-0.488-0.481-0.488-1.429v-2.884
		c-1.43,1.912-2.869,2.884-4.781,3.829c-1.903,0.962-4.293,1.436-6.211,1.436c-4.303,0-7.655-1.436-10.523-4.289
		c-2.869-2.883-4.293-6.693-4.293-11.002c0-4.786,1.439-8.605,4.293-11.471c2.878-2.873,6.694-4.293,11.001-4.293
		c2.391,0,4.303,0.482,6.221,1.435c1.903,0.952,3.342,1.913,4.781,3.825v-12.91h-1.917c-1.908,0-3.342,0-3.82-0.479
		c-0.483-0.487-0.961-0.955-0.961-1.912c0-0.951,0-1.435,0.483-1.908c0.483-0.473,0.956-0.473,1.908-0.473h6.694
		c0.478,0,0.951,0,1.43,0.473c0.487,0,0.487,0.482,0.487,0.957v37.303h1.435c0.956,0,1.908,0,2.391,0.479
		c0.483,0.487,0.483,0.951,0.483,1.912c0,0.479,0,1.431-0.483,1.898c-0.483,0.482-0.952,0.482-1.908,0.482h-5.264L194.119,328.955
		L194.119,328.955z M172.125,314.123c0,2.879,0.952,5.265,2.869,7.655c1.913,1.906,4.303,2.878,7.66,2.878
		c2.869,0,5.733-0.956,7.65-2.878c1.913-1.903,2.874-4.776,2.874-7.655c0-2.878-0.956-5.737-2.874-7.659
		c-1.908-1.917-4.298-2.874-7.65-2.874c-2.878,0-5.742,0.956-7.66,2.874C173.086,308.391,172.125,310.781,172.125,314.123
		L172.125,314.123z"/>
	<path d="M213.244,315.08c0,3.337,1.439,5.728,3.342,7.162c1.913,1.912,4.781,2.399,8.133,2.399
		c2.391,0,5.259-0.487,8.602-1.907c2.878-1.439,4.781-1.912,5.742-1.912c0.478,0,1.43,0,1.908,0.492
		c0.483,0.478,0.483,0.945,0.483,1.435c0,0.487,0,1.435-0.483,1.912c-0.483,0.479-1.439,0.951-2.391,1.43
		c-2.391,0.961-4.298,1.903-6.689,2.392c-2.391,0.479-4.781,0.945-7.172,0.945c-4.781,0-9.084-1.438-11.953-4.293
		c-2.874-2.879-4.303-6.685-4.303-11.466s1.439-8.606,4.781-11.953c3.347-2.878,7.172-4.308,12.441-4.308
		c4.781,0,8.602,1.439,11.465,4.308c2.869,2.864,4.781,6.211,4.781,10.041c0,1.436-0.488,1.907-0.961,2.392
		c-0.473,0.481-1.908,0.481-4.298,0.481h-0.488L213.244,315.08L213.244,315.08z M213.727,310.781h21.516
		c-0.483-2.392-1.439-4.781-3.352-6.225c-1.908-1.431-4.298-2.387-6.689-2.387c-2.874,0-5.264,0.956-7.172,2.387
		C215.634,306,214.195,308.391,213.727,310.781L213.727,310.781z"/>
	<path d="M356.682,324.169c0.951,0,1.438,0,1.912,0.487c0.479,0.482,0.479,0.956,0.479,1.908
		c0,0.95,0,1.43-0.479,1.896c-0.481,0.493-0.961,0.493-1.912,0.493h-21.516c-0.952,0-1.439,0-1.903-0.493
		c-0.486-0.478-0.486-0.946-0.486-1.896c0-0.952,0-1.439,0.486-1.908c0.475-0.487,0.946-0.487,1.903-0.487h5.732v-20.071h-5.732
		c-0.952,0-1.439,0-1.903-0.488c-0.486-0.479-0.486-0.957-0.486-1.903c0-0.961,0-1.444,0.486-1.913
		c0.475-0.488,0.946-0.488,1.903-0.488h5.269v-2.391c0-3.825,0.951-6.684,3.343-8.602c2.391-1.918,5.732-2.883,11.002-2.883
		c2.391,0,4.294,0.491,5.731,0.95c1.439,0.488,1.903,1.438,1.903,2.392c0,0.487-0.479,1.443-0.951,1.912
		c-0.479,0.479-1.438,0.479-1.902,0.479c-0.487,0-1.439,0-2.879-0.479c-1.438-0.478-2.868-0.478-3.829-0.478
		c-2.392,0-4.295,0.478-5.261,1.435c-0.961,0.957-1.435,2.875-1.435,5.264v1.908h11.471c0.951,0,1.436,0,1.912,0.483
		c0.479,0.487,0.479,0.956,0.479,1.908c0,0.487,0,1.435-0.479,1.907c-0.487,0.483-0.961,0.483-1.912,0.483h-11.953v20.081
		L356.682,324.169L356.682,324.169z"/>
	<path d="M404.494,313.65c0,4.78-1.439,8.609-4.781,11.475c-3.343,2.864-7.172,4.289-12.432,4.289
		c-5.265,0-9.084-1.436-12.437-4.289c-3.348-2.883-4.78-6.693-4.78-11.475c0-4.782,1.434-8.603,4.78-11.467
		c3.342-2.877,7.172-4.303,12.437-4.303c5.26,0,9.08,1.439,12.432,4.303C402.586,305.518,404.494,308.869,404.494,313.65
		L404.494,313.65z M386.803,325.125c3.344,0,6.222-0.956,8.124-3.347c1.912-1.903,3.342-4.776,3.342-8.128
		c0-3.344-0.95-6.211-3.342-8.119c-2.391-2.391-4.78-3.348-8.124-3.348c-3.342,0-6.22,0.957-8.123,3.348
		c-2.391,2.381-3.352,4.771-3.352,8.119c0,3.352,0.961,6.225,3.352,8.128C380.588,324.169,383.461,325.125,386.803,325.125
		L386.803,325.125z"/>
	<path d="M445.135,313.65c0,4.78-1.435,8.609-4.781,11.475c-3.343,2.869-7.172,4.289-12.432,4.289
		c-5.264,0-9.084-1.436-12.436-4.289c-3.349-2.883-4.781-6.693-4.781-11.475c0-4.782,1.434-8.603,4.781-11.467
		c3.342-2.877,7.172-4.303,12.436-4.303c5.26,0,9.08,1.439,12.432,4.303C443.222,305.518,445.135,308.869,445.135,313.65
		L445.135,313.65z M427.443,325.125c3.343,0,6.221-0.956,8.124-3.347c1.911-1.903,3.347-4.776,3.347-8.128
		c0-3.344-0.956-6.211-3.347-8.119c-2.392-2.391-4.781-3.348-8.124-3.348c-3.353,0-6.221,0.957-8.134,3.348
		c-2.391,2.381-3.342,4.771-3.342,8.119c0,3.352,0.951,6.225,3.342,8.128C421.229,324.169,424.102,325.125,427.443,325.125
		L427.443,325.125z"/>
	<path d="M477.169,300.264c0.956,0,1.907,0,2.391,0.482c0.482,0.486,0.482,0.961,0.482,1.908
		c0,0.955,0,1.443-0.482,1.902c-0.482,0.492-1.435,0.492-1.907,0.492H464.26v10.993c0,3.834,0.487,6.22,1.438,7.181
		c0.952,0.947,2.386,1.903,4.775,1.903c1.908,0,4.3-0.481,7.173-1.903c2.873-0.961,4.299-1.912,5.265-1.912
		c0.478,0,0.951,0,1.435,0.482c0.482,0.483,0.482,0.957,0.482,1.444c0,0.482-0.482,1.438-0.951,1.902
		c-0.479,0.482-1.438,0.951-2.869,1.443c-2.391,0.947-4.303,1.43-5.742,1.898c-1.901,0.482-3.347,0.482-4.78,0.482
		c-2.392,0-4.781-0.482-6.685-1.435c-1.908-0.947-2.879-1.908-3.83-3.83c-0.486-0.951-0.95-1.908-0.95-2.878
		c0-0.947-0.488-2.869-0.488-4.781v-0.947v-10.997H452.8c-0.951,0-1.438,0-1.908-0.488c-0.486-0.478-0.486-0.955-0.486-1.902
		c0-0.961,0.486-1.443,0.956-1.913c0.482-0.487,1.908-0.487,3.825-0.487h3.829v-6.685v-0.956c0-0.957,0-1.436,0.479-1.908
		c0.488-0.482,0.957-0.482,1.913-0.482c0.951,0,1.435,0.482,1.907,0.955c0.482,0.479,0.482,1.914,0.482,3.826v6.684L477.169,300.264
		L477.169,300.264z"/>
	<path d="M497.729,315.08c0,3.337,1.438,5.728,3.348,7.162c1.907,1.912,4.781,2.399,8.128,2.399
		c2.391,0,5.269-0.487,8.605-1.907c2.873-1.439,4.781-1.912,5.737-1.912c0.479,0,1.436,0,1.908,0.492
		c0.482,0.474,0.482,0.94,0.482,1.43c0,0.487,0,1.435-0.482,1.912c-0.483,0.479-1.439,0.951-2.391,1.43
		c-2.392,0.961-4.3,1.903-6.689,2.391c-2.391,0.483-4.781,0.951-7.172,0.951c-4.781,0-9.075-1.438-11.953-4.293
		c-2.873-2.879-4.303-6.685-4.303-11.466s1.438-8.606,4.78-11.953c3.348-3.347,7.173-4.308,12.437-4.308
		c4.781,0,8.611,1.438,11.471,4.308c2.873,2.864,4.781,6.211,4.781,10.041c0,1.436-0.479,1.907-0.952,2.392
		c-0.481,0.481-1.907,0.481-4.298,0.481h-0.488L497.729,315.08L497.729,315.08z M497.729,310.781h21.517
		c-0.479-2.392-1.436-4.781-3.343-6.225c-1.907-1.431-4.299-2.387-6.688-2.387c-2.874,0-5.265,0.956-7.172,2.387
		C499.641,306,498.206,308.391,497.729,310.781L497.729,310.781z"/>
	<path d="M546.019,324.169h10.997c0.956,0,1.439,0,1.912,0.487c0.479,0.482,0.479,0.956,0.479,1.908
		c0,0.95,0,1.43-0.479,1.896c-0.486,0.493-0.956,0.493-1.912,0.493H535.5c-0.946,0-1.435,0-1.898-0.493
		c-0.481-0.482-0.481-0.946-0.481-1.896c0-0.952,0-1.439,0.481-1.908c0.479-0.487,1.431-0.487,1.898-0.487h5.737v-21.028h-2.392
		c-1.906,0-3.347,0-3.824-0.486c-0.482-0.483-0.956-0.947-0.956-1.908c0-0.952,0-1.439,0.487-1.903
		c0.479-0.483,0.951-0.483,1.902-0.483h7.655c0.481,0,0.956,0,1.434,0.483c0.483,0,0.483,0.483,0.483,0.957v5.737
		c1.906-2.391,4.298-4.786,6.688-5.737c2.391-1.435,4.781-1.913,7.172-1.913c1.918,0,3.354,0.488,4.781,1.439
		c1.439,0.951,1.908,1.908,1.908,2.878s-0.479,1.435-0.951,2.386c-0.483,0.493-1.439,0.961-1.908,0.961
		c-0.481,0-1.438-0.479-2.391-0.961c-1.439-0.482-2.392-0.951-3.348-0.951c-1.906,0-3.342,0.483-5.265,1.913
		c-1.907,1.431-3.824,3.342-6.215,5.732L546.019,324.169L546.019,324.169L546.019,324.169z"/>
</g>
<g fill="#F7C500">
	<path d="M7.65,162.562c-0.478,0-0.956,0-0.956-0.493c-0.488-0.473-0.488-0.473-0.488-0.951v-3.337
		c0-0.479,0-0.479,0.488-0.956c0.478,0,0.478-0.488,0.951-0.488h27.249c0.488,0,0.961,0,1.439,0.488
		c0.488,0,0.488,0.487,0.488,0.956v3.342c0,0.492,0,0.951-0.488,0.951c-0.483,0.488-0.483,0.488-0.961,0.488H7.65L7.65,162.562z"/>
	<path d="M170.212,162.562c-0.478,0-0.951,0-0.951-0.488c-0.488-0.473-0.488-0.473-0.488-0.951v-3.342
		c0-0.479,0-0.479,0.488-0.956c0.478,0,0.478-0.488,0.951-0.488h27.249c0.488,0,0.961,0,1.439,0.488
		c0.488,0,0.488,0.487,0.488,0.956v3.342c0,0.492,0,0.951-0.488,0.951c-0.478,0.488-0.478,0.488-0.956,0.488H170.212
		L170.212,162.562z"/>
	<path d="M210.853,162.562c-0.478,0-0.956,0-0.956-0.493c-0.488-0.473-0.488-0.473-0.488-0.951v-3.337
		c0-0.479,0-0.479,0.488-0.956c0.478,0,0.478-0.488,0.951-0.488h27.249c0.488,0,0.961,0,1.439,0.488
		c0.488,0,0.488,0.487,0.488,0.956v3.342c0,0.492,0,0.951-0.488,0.951c-0.473,0.488-0.473,0.488-0.951,0.488H210.853
		L210.853,162.562z"/>
	<path d="M373.416,162.562c-0.479,0-0.957,0-0.957-0.493c-0.487-0.473-0.487-0.473-0.487-0.951v-3.337
		c0-0.479,0-0.479,0.487-0.956c0.479,0,0.479-0.488,0.952-0.488h27.248c0.486,0,0.961,0,1.438,0.488
		c0.487,0,0.487,0.487,0.487,0.956v3.342c0,0.492,0,0.951-0.487,0.951c-0.474,0.488-0.474,0.488-0.952,0.488H373.416
		L373.416,162.562z"/>
	<path d="M413.578,162.562c-0.482,0-0.961,0-0.961-0.488c-0.479-0.473-0.479-0.473-0.479-0.951v-3.342
		c0-0.479,0-0.479,0.479-0.956c0.486,0,0.486-0.488,0.961-0.488h27.248c0.488,0,0.956,0,1.438,0.488
		c0.479,0,0.479,0.487,0.479,0.956v3.342c0,0.492,0,0.951-0.479,0.951c-0.481,0.488-0.481,0.488-0.956,0.488H413.578
		L413.578,162.562z"/>
	<path d="M576.141,162.562c-0.481,0-0.956,0-0.956-0.488c-0.482-0.473-0.482-0.473-0.482-0.951v-3.342
		c0-0.479,0-0.479,0.482-0.956c0.482,0,0.482-0.488,0.956-0.488h27.248c0.488,0,0.957,0,1.439,0.488
		c0.479,0,0.479,0.487,0.479,0.956v3.342c0,0.492,0,0.951-0.479,0.951c-0.482,0.488-0.482,0.488-0.956,0.488H576.141
		L576.141,162.562z"/>
	<path d="M7.65,471.44c-0.478,0-0.951,0-0.951-0.487c-0.488-0.492-0.488-0.492-0.488-0.956v-3.347
		c0-0.479,0-0.947,0.488-0.947c0.478,0,0.478-0.492,0.951-0.492h27.249c0.488,0,0.961,0,1.439,0.492
		c0.488,0.482,0.488,0.482,0.488,0.947v3.347c0,0.481,0,0.956-0.488,0.956c-0.488,0.487-0.488,0.487-0.961,0.487H7.65L7.65,471.44z"
		/>
	<path d="M48.291,471.44c-0.478,0-0.951,0-0.951-0.487c-0.488-0.492-0.488-0.492-0.488-0.956v-3.347
		c0-0.479,0-0.947,0.488-0.947c0.478,0,0.478-0.492,0.951-0.492H75.54c0.488,0,0.961,0,1.439,0.492
		c0.488,0.482,0.488,0.482,0.488,0.947v3.347c0,0.481,0,0.956-0.488,0.956c-0.478,0.487-0.478,0.487-0.956,0.487H48.291
		L48.291,471.44z"/>
	<path d="M210.853,471.44c-0.478,0-0.951,0-0.951-0.487c-0.488-0.492-0.488-0.492-0.488-0.956v-3.347
		c0-0.479,0-0.947,0.488-0.947c0.478,0,0.478-0.492,0.951-0.492h27.249c0.488,0,0.961,0,1.439,0.492
		c0.488,0.482,0.488,0.482,0.488,0.947v3.347c0,0.481,0,0.956-0.488,0.956c-0.478,0.487-0.478,0.487-0.956,0.487H210.853
		L210.853,471.44z"/>
	<path d="M251.494,471.44c-0.478,0-0.951,0-0.951-0.487c-0.488-0.492-0.488-0.492-0.488-0.956v-3.347
		c0-0.479,0-0.947,0.488-0.947c0.478,0,0.478-0.492,0.951-0.492h27.249c0.488,0,0.961,0,1.439,0.492
		c0.488,0.482,0.488,0.482,0.488,0.947v3.347c0,0.481,0,0.956-0.488,0.956c-0.478,0.487-0.478,0.487-0.951,0.487H251.494
		L251.494,471.44z"/>
	<path d="M292.134,471.44c-0.478,0-0.951,0-0.951-0.487c-0.488-0.492-0.488-0.492-0.488-0.956v-3.347
		c0-0.479,0-0.947,0.488-0.947c0.478,0,0.478-0.492,0.951-0.492h27.249c0.487,0,0.961,0,1.439,0.492
		c0.486,0.482,0.486,0.482,0.486,0.947v3.347c0,0.481,0,0.956-0.486,0.956c-0.479,0.487-0.479,0.487-0.957,0.487H292.134
		L292.134,471.44z"/>
	<path d="M332.775,471.44c-0.479,0-0.952,0-0.952-0.487c-0.487-0.492-0.487-0.492-0.487-0.956v-3.347
		c0-0.479,0-0.947,0.487-0.947s0.487-0.492,0.952-0.492h27.248c0.486,0,0.961,0,1.438,0.492c0.487,0,0.487,0.482,0.487,0.947v3.347
		c0,0.481,0,0.956-0.487,0.956c-0.479,0.487-0.479,0.487-0.952,0.487H332.775L332.775,471.44z"/>
	<path d="M373.416,471.44c-0.479,0-0.952,0-0.952-0.487c-0.487-0.492-0.487-0.492-0.487-0.956v-3.347
		c0-0.479,0-0.947,0.487-0.947c0.479,0,0.479-0.492,0.952-0.492h27.248c0.487,0,0.961,0,1.438,0.492
		c0.487,0,0.487,0.482,0.487,0.947v3.347c0,0.481,0,0.956-0.487,0.956c-0.479,0.487-0.479,0.487-0.957,0.487H373.416L373.416,471.44
		z"/>
	<path d="M535.5,471.44c-0.482,0-0.951,0-0.951-0.487c-0.488-0.492-0.488-0.492-0.488-0.956v-3.347
		c0-0.479,0-0.947,0.488-0.947c0.479,0,0.479-0.492,0.951-0.492h27.248c0.488,0,0.957,0,1.439,0.492
		c0.479,0,0.479,0.482,0.479,0.947v3.347c0,0.481,0,0.956-0.479,0.956c-0.482,0-0.482,0.487-0.956,0.487H535.5L535.5,471.44z"/>
	<path d="M576.141,471.44c-0.481,0-0.956,0-0.956-0.487c-0.482-0.492-0.482-0.492-0.482-0.956v-3.347
		c0-0.479,0-0.947,0.482-0.947s0.482-0.492,0.956-0.492h27.248c0.488,0,0.957,0,1.439,0.492c0.479,0,0.479,0.482,0.479,0.947v3.347
		c0,0.481,0,0.956-0.479,0.956c-0.482,0.487-0.482,0.487-0.956,0.487H576.141L576.141,471.44z"/>
</g>
<g fill="#C57755">
	<path d="M285.445,32.025v3.834h-41.602v-3.834H285.445z"/>
	<path d="M326.086,32.025v3.834h-41.602v-3.834H326.086z"/>
	<path d="M366.727,32.025v3.834h-41.602v-3.834H366.727z"/>
	<path d="M230.93,58.327c0,0.483-0.478,1.434-0.952,2.874c-0.488,1.434-1.439,2.878-1.903,3.825
		c-1.439,3.347-2.391,6.694-3.352,9.562c-0.478,2.874-0.952,5.738-0.952,9.084c0,2.869,0.483,5.737,0.952,8.606
		c0.483,2.878,1.439,5.264,2.391,8.128c0.483,1.435,1.439,3.347,2.391,5.259c0.961,1.913,1.444,3.347,1.444,3.834
		c0,0.479,0,0.947-0.483,0.947c0,0.488-0.488,0.488-0.961,0.488c-0.474,0-1.43-0.488-2.391-0.961
		c-0.952-0.478-1.908-1.903-2.869-3.342c-2.391-3.342-4.303-6.689-5.269-10.514c-1.43-3.83-1.908-7.655-1.908-11.47
		c0-3.83,0.478-7.177,1.439-10.519c0.952-3.342,2.391-6.689,4.293-9.562c1.439-1.908,2.391-3.825,3.342-4.781
		c0.961-0.952,1.913-1.434,2.878-1.434c0.478,0,0.478,0,0.951,0.482C230.93,57.375,230.93,57.375,230.93,58.327L230.93,58.327z"/>
	<path d="M258.188,91.332c0-1.913,0.478-2.878,1.908-4.308c1.435-1.43,2.874-1.908,4.781-1.908
		s3.342,0.488,4.781,1.439c1.435,0.951,1.908,2.391,1.908,4.298c0,1.907-0.488,3.342-1.908,4.298
		c-1.439,0.946-2.874,1.429-4.781,1.429s-3.347-0.483-4.781-1.429C258.666,94.673,258.188,93.234,258.188,91.332L258.188,91.332z"/>
	<path d="M339.469,91.332c0-1.913,0.479-2.878,1.908-4.308c1.434-0.951,2.873-1.908,4.781-1.908
		c1.907,0,3.342,0.488,4.781,1.439c1.434,0.951,1.906,2.391,1.906,4.298c0,1.907-0.481,3.342-1.906,4.298
		c-1.439,0.946-2.874,1.429-4.781,1.429c-1.908,0-3.349-0.483-4.781-1.429C339.947,94.673,339.469,93.234,339.469,91.332z"/>
	<path d="M379.631,108.525c0-0.483,0.479-1.43,0.952-2.874c0.487-1.435,1.438-2.874,1.912-3.825
		c1.43-3.347,2.391-6.684,2.869-9.562c0.486-2.869,0.951-5.737,0.951-9.075c0-2.878-0.479-5.742-0.951-8.133
		c-0.488-2.391-1.439-5.259-2.392-8.124c-0.487-1.439-1.438-3.342-2.391-5.259c-0.961-1.913-1.439-3.347-1.439-3.834
		c0-0.483,0-0.957,0.487-0.957c0-0.473,0.479-0.473,0.952-0.473c0.487,0,1.438,0.473,2.391,0.952
		c0.951,0.483,1.912,1.903,2.878,3.347c2.392,3.342,4.294,6.684,5.261,10.514c1.434,3.82,1.912,7.655,1.912,11.465
		s-0.487,7.172-1.439,10.519c-0.951,3.337-2.391,6.684-4.303,9.562c-1.431,2.391-2.392,3.82-3.82,4.781
		c-0.951,0.947-1.908,1.435-2.878,1.435C380.109,109.013,380.109,109.013,379.631,108.525
		C380.109,109.486,379.631,109.013,379.631,108.525L379.631,108.525z"/>
	<path d="M78.891,158.728c0,4.786-1.439,8.611-4.781,11.47c-3.352,2.878-7.172,4.298-12.436,4.298
		c-5.264,0-9.08-1.435-12.436-4.298c-3.347-2.874-4.781-6.684-4.781-11.47c0-4.776,1.435-8.602,4.781-11.461
		c3.342-2.878,7.172-4.303,12.436-4.303c5.264,0,9.08,1.439,12.436,4.303C77.461,150.609,78.891,154.435,78.891,158.728
		L78.891,158.728z M61.678,170.212c3.342,0,6.22-0.947,8.123-3.337c2.391-1.908,3.342-4.786,3.342-8.133
		c0-3.342-0.952-6.216-3.342-8.123c-2.391-2.391-4.781-3.347-8.123-3.347c-3.342,0-6.221,0.957-8.124,3.347
		c-2.391,2.386-3.352,4.781-3.352,8.123c0,3.347,0.952,6.221,3.352,8.133C55.462,169.251,58.336,170.212,61.678,170.212
		L61.678,170.212z"/>
	<path d="M119.531,158.728c0,4.786-1.439,8.611-4.781,11.47c-3.352,2.878-7.172,4.298-12.436,4.298
		s-9.08-1.435-12.436-4.298c-3.347-2.874-4.781-6.684-4.781-11.47c0-4.776,1.435-8.602,4.781-11.461
		c3.342-2.878,7.172-4.303,12.436-4.303s9.08,1.439,12.436,4.303C118.102,150.609,119.531,154.435,119.531,158.728L119.531,158.728z
		 M102.319,170.212c3.342,0,6.22-0.947,8.123-3.337c2.391-1.908,3.352-4.786,3.352-8.133c0-3.342-0.952-6.216-3.352-8.123
		c-2.391-2.391-4.781-3.347-8.123-3.347c-3.342,0-6.221,0.957-8.124,3.347c-2.391,2.386-3.352,4.781-3.352,8.123
		c0,3.347,0.961,6.221,3.352,8.133C96.103,169.251,98.977,170.212,102.319,170.212L102.319,170.212z"/>
	<path d="M160.65,154.435c0,6.215-1.903,11.006-4.781,14.831c-3.342,3.825-7.65,5.738-12.904,5.738
		c-5.269,0-9.562-1.913-12.915-5.738c-3.342-3.825-4.781-8.616-4.781-14.831c0-6.216,1.903-10.997,4.781-14.832
		c3.337-3.82,7.646-5.728,12.91-5.728c5.259,0,9.562,1.913,12.904,5.733C159.211,143.438,160.65,148.697,160.65,154.435
		L160.65,154.435z M142.959,170.681c3.83,0,6.684-1.43,8.611-4.293c1.908-2.874,3.342-6.694,3.342-11.475
		c0-4.776-0.952-9.075-3.342-11.465c-1.913-2.878-4.781-4.298-8.611-4.298s-6.694,1.434-8.611,4.298
		c-1.903,2.874-3.342,6.688-3.342,11.465c0,4.781,0.951,9.08,3.342,11.47C136.266,169.251,139.134,170.681,142.959,170.681
		L142.959,170.681z"/>
	<path d="M271.57,135.31c0,0.487-0.478,1.444-0.952,2.878c-0.478,1.43-1.439,2.874-1.903,3.825
		c-1.439,3.347-2.391,6.684-3.352,9.562c-0.478,2.869-0.952,5.737-0.952,9.075c0,2.878,0.483,5.738,0.952,8.616
		c0.483,2.874,1.439,5.264,2.391,8.128c0.483,1.434,1.439,3.342,2.391,5.254c0.961,1.913,1.439,3.347,1.439,3.83
		s0,0.956-0.488,0.956c0,0.478-0.478,0.478-0.951,0.478c-0.483,0-1.439-0.478-2.391-0.952c-0.961-0.482-1.908-1.903-2.878-3.347
		c-2.391-3.347-4.293-6.689-5.259-10.514c-1.439-3.825-1.913-7.66-1.913-11.471s0.488-7.172,1.439-10.519
		c0.952-3.342,2.391-6.689,4.294-9.562c1.439-1.908,2.391-3.82,3.352-4.781c0.951-0.951,1.908-1.435,2.869-1.435
		c0.488,0,0.488,0,0.961,0.488C271.102,134.363,271.57,134.822,271.57,135.31L271.57,135.31z"/>
	<path d="M326.086,185.976v3.835h-41.602v-3.835H326.086z"/>
	<path d="M338.99,185.976c0-0.478,0.479-1.434,0.952-2.864c0.486-1.439,1.438-2.883,1.911-3.83
		c1.431-3.347,2.392-6.689,2.869-9.562c0.487-2.874,0.951-5.738,0.951-9.08c0-2.874-0.479-5.738-0.951-8.128
		c-0.479-2.869-1.438-5.254-2.391-8.119c-0.479-1.444-1.43-3.347-2.391-5.269s-1.439-3.337-1.439-3.825c0-0.478,0-0.951,0.487-0.951
		c0-0.483,0.479-0.483,0.952-0.483c0.486,0,1.438,0.493,2.391,0.957c0.956,0.478,1.912,1.908,2.878,3.347
		c2.391,3.337,4.294,6.68,5.265,10.509c1.438,3.834,1.907,7.66,1.907,11.475s-0.479,7.172-1.438,10.519
		c-0.951,3.342-2.392,6.684-4.293,10.045c-1.439,2.391-2.392,3.82-3.83,4.776c-0.951,0.957-1.908,1.435-2.869,1.435
		c-0.487,0-0.487,0-0.961-0.478C338.99,186.469,338.99,186.469,338.99,185.976L338.99,185.976z"/>
	<path d="M485.775,154.435c0,6.215-1.903,11.006-4.781,14.831c-3.343,3.825-7.65,5.738-12.905,5.738
		c-5.264,0-9.562-1.913-12.909-5.738c-3.347-3.825-4.78-8.616-4.78-14.831c0-6.216,1.907-10.997,4.78-14.832
		c3.343-3.82,7.65-5.728,12.904-5.728c5.265,0,9.562,1.913,12.905,5.733C483.862,143.438,485.775,148.697,485.775,154.435
		L485.775,154.435z M467.606,170.681c3.824,0,6.688-1.43,8.605-4.293c1.912-2.874,3.347-6.689,3.347-11.47
		c0-4.777-0.956-9.075-3.347-11.466c-1.908-2.878-4.781-4.298-8.605-4.298c-3.825,0-6.689,1.435-8.606,4.298
		c-1.912,2.874-3.347,6.689-3.347,11.466c0,4.781,0.956,9.08,3.347,11.47C460.912,169.251,463.781,170.681,467.606,170.681
		L467.606,170.681z"/>
	<path d="M525.459,158.728c0,4.786-1.438,8.611-4.781,11.47c-3.347,2.878-7.172,4.298-12.436,4.298
		c-5.27,0-9.08-1.435-12.438-4.298c-3.347-2.874-4.78-6.684-4.78-11.47c0-4.776,1.435-8.602,4.78-11.461
		c3.349-2.878,7.172-4.303,12.438-4.303c5.264,0,9.079,1.439,12.436,4.303C524.025,150.609,525.459,154.435,525.459,158.728
		L525.459,158.728z M508.247,170.212c3.347,0,6.216-0.947,8.128-3.337c2.391-1.908,3.342-4.786,3.342-8.133
		c0-3.342-0.951-6.216-3.342-8.123c-2.391-2.391-4.781-3.347-8.128-3.347s-6.216,0.957-8.128,3.347
		c-2.391,2.386-3.343,4.781-3.343,8.123c0,3.347,0.952,6.221,3.343,8.133C502.031,169.251,504.9,170.212,508.247,170.212
		L508.247,170.212z"/>
	<path d="M566.1,158.728c0,4.786-1.438,8.611-4.78,11.47c-3.348,2.878-7.173,4.298-12.437,4.298
		c-5.265,0-9.08-1.435-12.437-4.298c-3.348-2.874-4.781-6.684-4.781-11.47c0-4.776,1.435-8.602,4.781-11.461
		c3.348-2.878,7.172-4.303,12.437-4.303c5.264,0,9.079,1.439,12.437,4.303C564.666,150.609,566.1,154.435,566.1,158.728
		L566.1,158.728z M548.888,170.212c3.348,0,6.216-0.947,8.128-3.337c2.392-1.908,3.343-4.786,3.343-8.133
		c0-3.342-0.951-6.216-3.343-8.123c-2.391-2.391-4.78-3.347-8.128-3.347c-3.347,0-6.216,0.957-8.128,3.347
		c-2.391,2.386-3.343,4.781-3.343,8.123c0,3.347,0.952,6.221,3.343,8.133C542.672,169.251,545.541,170.212,548.888,170.212
		L548.888,170.212z"/>
	<path d="M57.853,396.352c0-0.946,0.488-1.435,0.488-1.435c0.483,0,0.952-0.483,1.439-0.483h7.172
		c0.483,0,0.483,0,0.952,0l0.483,0.483v0.487v0.482l-9.084,19.13c0,0.479-0.478,0.479-0.478,0.951c-0.483,0-0.483,0.479-0.952,0.479
		l0,0c0,0,0,0-0.483,0l-2.391-0.952c-0.487,0-0.487-0.479-0.956-0.479l-0.483-0.492v-0.482c0,0,0,0,0-0.483L57.853,396.352z"/>
	<path d="M119.531,390.618c0,4.786-1.439,8.616-4.781,11.471c-3.352,2.878-7.172,4.294-12.436,4.294
		s-9.08-1.43-12.436-4.294c-3.347-2.874-4.781-6.685-4.781-11.471c0-4.776,1.435-8.603,4.781-11.46
		c3.342-2.879,7.172-4.304,12.436-4.304s9.08,1.438,12.436,4.304C118.102,382.018,119.531,385.842,119.531,390.618L119.531,390.618z
		 M102.319,402.104c3.342,0,6.22-0.946,8.123-3.338c2.391-1.906,3.352-4.785,3.352-8.128c0-3.342-0.952-6.216-3.352-8.123
		c-2.391-2.391-4.781-3.347-8.123-3.347c-3.342,0-6.221,0.956-8.124,3.347c-2.391,2.387-3.352,4.781-3.352,8.123
		c0,3.343,0.961,6.222,3.352,8.128C96.103,400.674,98.977,402.104,102.319,402.104L102.319,402.104z"/>
	<path d="M160.172,390.618c0,4.786-1.439,8.616-4.781,11.471c-3.352,2.878-7.172,4.294-12.436,4.294
		c-5.274,0-9.08-1.43-12.436-4.294c-3.347-2.874-4.781-6.685-4.781-11.471c0-4.776,1.435-8.603,4.781-11.46
		c3.342-2.879,7.172-4.304,12.436-4.304c5.264,0,9.07,1.438,12.436,4.304C158.742,382.018,160.172,385.842,160.172,390.618
		L160.172,390.618z M142.959,402.104c3.342,0,6.211-0.946,8.123-3.338c2.391-1.906,3.342-4.785,3.342-8.128
		c0-3.342-0.952-6.216-3.342-8.123c-2.391-2.391-4.781-3.347-8.123-3.347c-3.352,0-6.221,0.956-8.133,3.347
		c-2.391,2.387-3.342,4.781-3.342,8.123c0,3.343,0.952,6.222,3.342,8.128C136.744,400.674,139.617,402.104,142.959,402.104
		L142.959,402.104z"/>
	<path d="M201.291,386.325c0,6.216-1.903,11.006-4.781,14.831c-3.342,3.825-7.65,5.736-12.904,5.736
		c-5.269,0-9.562-1.911-12.905-5.736c-3.352-3.825-4.781-8.615-4.781-14.831s1.903-10.997,4.781-14.832
		c3.342-3.819,7.65-5.729,12.905-5.729c5.254,0,9.562,1.908,12.904,5.729C199.852,375.328,201.291,380.109,201.291,386.325
		L201.291,386.325z M183.6,402.104c3.83,0,6.684-1.43,8.611-4.294c1.908-2.878,3.342-6.685,3.342-11.475
		c0-4.781-0.952-9.07-3.342-11.471c-1.913-2.873-4.781-4.294-8.611-4.294s-6.694,1.435-8.606,4.289
		c-1.903,2.879-3.342,6.688-3.342,11.471c0,4.791,0.951,9.079,3.342,11.47C176.906,400.674,179.775,402.104,183.6,402.104
		L183.6,402.104z"/>
	<path d="M445.135,386.325c0,6.216-1.908,11.006-4.781,14.831c-3.343,3.825-7.649,5.736-12.904,5.736
		c-5.27,0-9.562-1.911-12.914-5.736c-3.342-3.825-4.781-8.615-4.781-14.831s1.913-10.997,4.781-14.832
		c3.343-3.819,7.649-5.729,12.914-5.729c5.26,0,9.562,1.908,12.904,5.729C443.222,375.328,445.135,380.109,445.135,386.325
		L445.135,386.325z M426.961,402.104c3.83,0,6.693-1.43,8.611-4.294c1.917-2.863,3.347-6.68,3.347-11.471
		c0-4.781-0.956-9.069-3.347-11.47c-1.903-2.874-4.781-4.294-8.611-4.294c-3.82,0-6.685,1.438-8.602,4.294
		c-1.912,2.878-3.353,6.688-3.353,11.47c0,4.791,0.961,9.08,3.353,11.471C420.271,400.674,423.619,402.104,426.961,402.104
		L426.961,402.104z"/>
	<path d="M484.818,390.618c0,4.786-1.438,8.616-4.781,11.471c-3.353,2.878-7.172,4.294-12.437,4.294
		c-5.269,0-9.079-1.43-12.439-4.294c-3.349-2.874-4.781-6.685-4.781-11.471c0-4.776,1.435-8.603,4.781-11.46
		c3.352-2.879,7.172-4.304,12.439-4.304c5.265,0,9.075,1.438,12.437,4.304C483.385,382.018,484.818,385.842,484.818,390.618
		L484.818,390.618z M467.606,402.104c3.347,0,6.216-0.946,8.128-3.338c2.391-1.906,3.342-4.785,3.342-8.128
		c0-3.342-0.951-6.216-3.342-8.123c-2.392-2.391-4.781-3.347-8.128-3.347c-3.348,0-6.217,0.956-8.129,3.347
		c-2.391,2.387-3.352,4.781-3.352,8.123c0,3.343,0.961,6.222,3.352,8.128C461.391,400.674,464.26,402.104,467.606,402.104
		L467.606,402.104z"/>
	<path d="M525.459,390.618c0,4.786-1.438,8.616-4.781,11.471c-3.347,2.878-7.172,4.294-12.436,4.294
		c-5.27,0-9.08-1.43-12.438-4.294c-3.347-2.874-4.78-6.685-4.78-11.471c0-4.776,1.435-8.603,4.78-11.46
		c3.349-2.879,7.172-4.304,12.438-4.304c5.264,0,9.079,1.438,12.436,4.304C524.025,382.018,525.459,385.842,525.459,390.618
		L525.459,390.618z M508.247,402.104c3.347,0,6.216-0.946,8.128-3.338c2.391-1.906,3.342-4.785,3.342-8.128
		c0-3.342-0.951-6.216-3.342-8.123c-2.391-2.391-4.781-3.347-8.128-3.347s-6.216,0.956-8.128,3.347
		c-2.391,2.387-3.343,4.781-3.343,8.123c0,3.343,0.952,6.222,3.343,8.128C502.031,400.674,504.9,402.104,508.247,402.104
		L508.247,402.104z"/>
	<path d="M545.062,396.352c0-0.946,0.479-1.435,0.479-1.435c0.482,0,0.956-0.483,1.438-0.483h7.655
		c0.479,0,0.479,0,0.951,0l0.487,0.483v0.487v0.482l-9.084,19.13c0,0.479-0.479,0.479-0.479,0.951c-0.486,0-0.486,0.479-0.951,0.479
		l0,0c0,0,0,0-0.481,0l-2.391-0.952c-0.488,0-0.488-0.479-0.956-0.479l-0.488-0.492v-0.482c0,0,0,0,0-0.483L545.062,396.352z"/>
	<path d="M109.491,483.857l-21.038-44.476v-0.482v-0.479c0-0.488,0-0.957,0.483-1.444
		c0.483-0.481,0.956-0.481,1.908-0.481c0.483,0,0.961,0,1.439,0.481c0.483,0.487,0.952,0.956,1.435,2.392l20.564,44.476v0.487v0.482
		c0,0.482,0,1.43-0.483,1.43c-0.487,0.482-0.956,0.482-1.439,0.482c-0.478,0-0.952,0-1.43-0.482
		C110.93,485.775,109.969,484.814,109.491,483.857L109.491,483.857z"/>
	<path d="M181.209,430.8h3.83v68.841h-3.83V430.8z"/>
	<path d="M425.053,430.8h3.83v68.841h-3.83V430.8z"/>
	<path d="M501.075,483.857c-0.483,0.955-0.956,1.902-1.436,2.386c-0.481,0.482-0.956,0.482-1.438,0.482
		s-1.436,0-1.436-0.482c-0.481-0.482-0.481-0.946-0.481-1.431v-0.481c0,0,0-0.487,0.481-0.487l20.561-44.476
		c0.482-0.946,0.957-1.903,1.438-2.392c0.479-0.481,0.951-0.481,1.436-0.481c0.481,0,1.435,0,1.907,0.481
		c0.482,0.487,0.482,0.956,0.482,1.444v0.479v0.482L501.075,483.857z"/>
	<path d="M109.008,521.156c0,0.479-0.478,1.435-0.952,2.878c-0.478,1.435-1.439,2.869-1.903,3.825
		c-1.439,3.338-2.391,6.685-3.352,9.562c-0.488,2.874-0.952,5.729-0.952,9.075c0,2.878,0.483,5.737,0.952,8.615
		c0.483,2.869,1.439,5.26,2.391,8.119c0.483,1.435,1.439,3.347,2.391,5.269c0.961,1.898,1.439,3.338,1.439,3.825
		c0,0.482,0,0.956-0.488,0.956c0,0.482-0.478,0.482-0.951,0.482c-0.483,0-1.439-0.482-2.391-0.956
		c-0.961-0.479-1.908-1.897-2.878-3.343c-2.391-3.347-4.293-6.688-5.259-10.509c-1.439-3.83-1.913-7.664-1.913-11.477
		c0-3.811,0.488-7.172,1.43-10.509c0.961-3.347,2.391-6.688,4.303-9.571c1.439-1.898,2.391-3.825,3.352-4.776
		c0.951-0.951,1.913-1.439,2.869-1.439c0.488,0,0.488,0,0.961,0.488C109.008,520.664,109.008,520.664,109.008,521.156
		L109.008,521.156z"/>
	<path d="M163.992,572.306v3.835H122.4v-3.835H163.992z"/>
	<path d="M176.906,571.838c0-0.479,0.478-1.438,0.952-2.869c0.478-1.438,1.439-2.883,1.908-3.83
		c1.429-3.342,2.391-6.684,2.874-9.562c0.478-2.878,0.946-5.732,0.946-9.079c0-2.874-0.483-5.737-0.946-8.128
		c-0.483-2.382-1.444-5.26-2.391-8.119c-0.493-1.443-1.444-3.347-2.391-5.269c-0.961-1.917-1.444-3.348-1.444-3.825
		c0-0.492,0-0.951,0.483-0.951c0-0.493,0.488-0.493,0.961-0.493c0.468,0,1.429,0.493,2.391,0.952
		c0.947,0.492,1.908,1.907,2.869,3.352c2.391,3.348,4.293,6.685,5.259,10.51c1.439,3.83,1.913,7.654,1.913,11.476
		s-0.478,7.172-1.439,10.514c-0.951,3.343-2.391,6.685-4.293,9.559c-1.439,2.396-2.391,3.835-3.83,4.786
		c-0.952,0.95-1.903,1.438-2.869,1.438C177.384,572.32,177.384,572.32,176.906,571.838
		C176.906,572.794,176.906,572.306,176.906,571.838L176.906,571.838z"/>
	<path d="M433.664,521.156c0,0.479-0.487,1.435-0.961,2.878c-0.479,1.435-1.43,2.869-1.908,3.825
		c-1.434,3.338-2.391,6.685-3.342,9.562c-0.492,2.874-0.956,5.729-0.956,9.075c0,2.878,0.479,5.737,0.956,8.615
		c0.482,2.869,1.435,5.26,2.391,8.119c0.483,1.435,1.436,3.347,2.392,5.269c0.95,1.898,1.435,3.338,1.435,3.825
		c0,0.482,0,0.956-0.482,0.956c0,0.482-0.482,0.482-0.951,0.482c-0.492,0-1.438-0.482-2.392-0.956
		c-0.956-0.482-1.907-1.897-2.873-3.343c-2.391-3.347-4.299-6.688-5.265-10.509c-1.435-3.83-1.907-7.664-1.907-11.477
		c0-3.811,0.482-7.172,1.436-10.509c0.956-3.347,2.391-6.688,4.298-9.571c1.438-1.898,2.391-3.825,3.347-4.776
		s1.908-1.439,2.874-1.439c0.482,0,0.482,0,0.951,0.488C433.664,520.664,433.664,520.664,433.664,521.156L433.664,521.156z"/>
	<path d="M488.644,572.306v3.835h-41.597v-3.835H488.644z"/>
	<path d="M501.553,571.838c0-0.479,0.483-1.438,0.952-2.869c0.482-1.438,1.438-2.883,1.912-3.83
		c1.435-3.342,2.391-6.684,2.869-9.562c0.481-2.878,0.956-5.732,0.956-9.079c0-2.874-0.488-5.737-0.956-8.128
		c-0.479-2.382-1.436-5.26-2.392-8.119c-0.479-1.443-1.435-3.347-2.391-5.269c-0.952-1.908-1.435-3.348-1.435-3.825
		c0-0.492,0-0.951,0.481-0.951c0-0.493,0.488-0.493,0.961-0.493c0.475,0,1.431,0.493,2.392,0.952
		c0.952,0.492,1.907,1.907,2.868,3.352c2.392,3.348,4.304,6.685,5.265,10.51c1.438,3.83,1.908,7.654,1.908,11.476
		s-0.479,7.172-1.439,10.514c-0.951,3.343-2.391,6.685-4.293,9.559c-1.438,2.396-2.391,3.835-3.825,4.786
		c-0.951,0.95-1.908,1.438-2.874,1.438C502.031,572.32,502.031,572.32,501.553,571.838
		C501.553,572.794,501.553,572.306,501.553,571.838L501.553,571.838z"/>
</g>
</svg>
